<?xml version="1.0" encoding="UTF-8" standalone="no"?>
<!DOCTYPE svg PUBLIC "-//W3C//DTD SVG 1.1//EN"
 "http://www.w3.org/Graphics/SVG/1.1/DTD/svg11.dtd">
<!-- Generated by graphviz version 2.43.0 (0)
 -->
<!-- Title: snakemake_dag Pages: 1 -->
<svg width="919pt" height="404pt"
 viewBox="0.00 0.00 919.40 404.00" xmlns="http://www.w3.org/2000/svg" xmlns:xlink="http://www.w3.org/1999/xlink">
<g id="graph0" class="graph" transform="scale(1 1) rotate(0) translate(4 400)">
<title>snakemake_dag</title>
<!-- 0 -->
<g id="node1" class="node">
<title>0</title>
<path fill="white" stroke="#d85656" stroke-width="2" d="M415.9,-36C415.9,-36 385.9,-36 385.9,-36 379.9,-36 373.9,-30 373.9,-24 373.9,-24 373.9,-12 373.9,-12 373.9,-6 379.9,0 385.9,0 385.9,0 415.9,0 415.9,0 421.9,0 427.9,-6 427.9,-12 427.9,-12 427.9,-24 427.9,-24 427.9,-30 421.9,-36 415.9,-36"/>
<text text-anchor="middle" x="400.9" y="-15.5" font-family="sans" font-size="10.00">all</text>
</g>
<!-- 1 -->
<g id="node2" class="node">
<title>1</title>
<path fill="white" stroke="#88d856" stroke-width="2" d="M219.9,-180C219.9,-180 161.9,-180 161.9,-180 155.9,-180 149.9,-174 149.9,-168 149.9,-168 149.9,-156 149.9,-156 149.9,-150 155.9,-144 161.9,-144 161.9,-144 219.9,-144 219.9,-144 225.9,-144 231.9,-150 231.9,-156 231.9,-156 231.9,-168 231.9,-168 231.9,-174 225.9,-180 219.9,-180"/>
<text text-anchor="middle" x="190.9" y="-159.5" font-family="sans" font-size="10.00">run_phyclone</text>
</g>
<!-- 1&#45;&gt;0 -->
<g id="edge1" class="edge">
<title>1&#45;&gt;0</title>
<path fill="none" stroke="grey" stroke-width="2" d="M149.68,-155.91C83.88,-146.2 -33.3,-121.45 9.9,-72 33.03,-45.52 270.61,-27.42 363.73,-21.29"/>
<polygon fill="grey" stroke="grey" stroke-width="2" points="364.08,-24.78 373.84,-20.64 363.63,-17.79 364.08,-24.78"/>
</g>
<!-- 5 -->
<g id="node3" class="node">
<title>5</title>
<path fill="white" stroke="#56d8c1" stroke-width="2" d="M162.9,-108C162.9,-108 30.9,-108 30.9,-108 24.9,-108 18.9,-102 18.9,-96 18.9,-96 18.9,-84 18.9,-84 18.9,-78 24.9,-72 30.9,-72 30.9,-72 162.9,-72 162.9,-72 168.9,-72 174.9,-78 174.9,-84 174.9,-84 174.9,-96 174.9,-96 174.9,-102 168.9,-108 162.9,-108"/>
<text text-anchor="middle" x="96.9" y="-87.5" font-family="sans" font-size="10.00">write_map_results_phyclone</text>
</g>
<!-- 1&#45;&gt;5 -->
<g id="edge2" class="edge">
<title>1&#45;&gt;5</title>
<path fill="none" stroke="grey" stroke-width="2" d="M167.66,-143.7C155.71,-134.8 140.97,-123.82 128.05,-114.2"/>
<polygon fill="grey" stroke="grey" stroke-width="2" points="129.98,-111.27 119.86,-108.1 125.79,-116.88 129.98,-111.27"/>
</g>
<!-- 6 -->
<g id="node4" class="node">
<title>6</title>
<path fill="white" stroke="#56d88a" stroke-width="2" d="M366.4,-108C366.4,-108 205.4,-108 205.4,-108 199.4,-108 193.4,-102 193.4,-96 193.4,-96 193.4,-84 193.4,-84 193.4,-78 199.4,-72 205.4,-72 205.4,-72 366.4,-72 366.4,-72 372.4,-72 378.4,-78 378.4,-84 378.4,-84 378.4,-96 378.4,-96 378.4,-102 372.4,-108 366.4,-108"/>
<text text-anchor="middle" x="285.9" y="-87.5" font-family="sans" font-size="10.00">write_consensus_results_phyclone</text>
</g>
<!-- 1&#45;&gt;6 -->
<g id="edge3" class="edge">
<title>1&#45;&gt;6</title>
<path fill="none" stroke="grey" stroke-width="2" d="M214.38,-143.7C226.46,-134.8 241.35,-123.82 254.41,-114.2"/>
<polygon fill="grey" stroke="grey" stroke-width="2" points="256.71,-116.85 262.68,-108.1 252.56,-111.22 256.71,-116.85"/>
</g>
<!-- 7 -->
<g id="node5" class="node">
<title>7</title>
<path fill="white" stroke="#56c1d8" stroke-width="2" d="M622.9,-108C622.9,-108 408.9,-108 408.9,-108 402.9,-108 396.9,-102 396.9,-96 396.9,-96 396.9,-84 396.9,-84 396.9,-78 402.9,-72 408.9,-72 408.9,-72 622.9,-72 622.9,-72 628.9,-72 634.9,-78 634.9,-84 634.9,-84 634.9,-96 634.9,-96 634.9,-102 628.9,-108 622.9,-108"/>
<text text-anchor="middle" x="515.9" y="-87.5" font-family="sans" font-size="10.00">write_phyclone_topology_archive_and_report</text>
</g>
<!-- 1&#45;&gt;7 -->
<g id="edge4" class="edge">
<title>1&#45;&gt;7</title>
<path fill="none" stroke="grey" stroke-width="2" d="M232.06,-152.13C280.78,-141.64 363.31,-123.86 426.86,-110.18"/>
<polygon fill="grey" stroke="grey" stroke-width="2" points="427.85,-113.55 436.88,-108.02 426.37,-106.7 427.85,-113.55"/>
</g>
<!-- 5&#45;&gt;0 -->
<g id="edge9" class="edge">
<title>5&#45;&gt;0</title>
<path fill="none" stroke="grey" stroke-width="2" d="M170.87,-71.97C231.95,-57.9 316.08,-38.53 363.83,-27.53"/>
<polygon fill="grey" stroke="grey" stroke-width="2" points="364.78,-30.91 373.74,-25.25 363.21,-24.09 364.78,-30.91"/>
</g>
<!-- 6&#45;&gt;0 -->
<g id="edge10" class="edge">
<title>6&#45;&gt;0</title>
<path fill="none" stroke="grey" stroke-width="2" d="M314.03,-71.88C329.4,-62.52 348.6,-50.83 365.04,-40.83"/>
<polygon fill="grey" stroke="grey" stroke-width="2" points="367.12,-43.65 373.85,-35.47 363.48,-37.67 367.12,-43.65"/>
</g>
<!-- 7&#45;&gt;0 -->
<g id="edge11" class="edge">
<title>7&#45;&gt;0</title>
<path fill="none" stroke="grey" stroke-width="2" d="M487.76,-71.88C472.39,-62.52 453.19,-50.83 436.75,-40.83"/>
<polygon fill="grey" stroke="grey" stroke-width="2" points="438.31,-37.67 427.95,-35.47 434.67,-43.65 438.31,-37.67"/>
</g>
<!-- 2 -->
<g id="node6" class="node">
<title>2</title>
<path fill="white" stroke="#d88d56" stroke-width="2" d="M206.9,-396C206.9,-396 150.9,-396 150.9,-396 144.9,-396 138.9,-390 138.9,-384 138.9,-384 138.9,-372 138.9,-372 138.9,-366 144.9,-360 150.9,-360 150.9,-360 206.9,-360 206.9,-360 212.9,-360 218.9,-366 218.9,-372 218.9,-372 218.9,-384 218.9,-384 218.9,-390 212.9,-396 206.9,-396"/>
<text text-anchor="middle" x="178.9" y="-375.5" font-family="sans" font-size="10.00">correct_input</text>
</g>
<!-- 2&#45;&gt;1 -->
<g id="edge5" class="edge">
<title>2&#45;&gt;1</title>
<path fill="none" stroke="grey" stroke-width="2" d="M173.16,-359.79C164.11,-330.03 148.81,-267.19 161.9,-216 164.27,-206.7 168.66,-197.27 173.31,-189"/>
<polygon fill="grey" stroke="grey" stroke-width="2" points="176.44,-190.59 178.59,-180.22 170.44,-186.99 176.44,-190.59"/>
</g>
<!-- 4 -->
<g id="node7" class="node">
<title>4</title>
<path fill="white" stroke="#59d856" stroke-width="2" d="M260.9,-324C260.9,-324 194.9,-324 194.9,-324 188.9,-324 182.9,-318 182.9,-312 182.9,-312 182.9,-300 182.9,-300 182.9,-294 188.9,-288 194.9,-288 194.9,-288 260.9,-288 260.9,-288 266.9,-288 272.9,-294 272.9,-300 272.9,-300 272.9,-312 272.9,-312 272.9,-318 266.9,-324 260.9,-324"/>
<text text-anchor="middle" x="227.9" y="-303.5" font-family="sans" font-size="10.00">run_pyclone_vi</text>
</g>
<!-- 2&#45;&gt;4 -->
<g id="edge6" class="edge">
<title>2&#45;&gt;4</title>
<path fill="none" stroke="grey" stroke-width="2" d="M191.01,-359.7C196.76,-351.47 203.76,-341.48 210.1,-332.42"/>
<polygon fill="grey" stroke="grey" stroke-width="2" points="213.06,-334.3 215.92,-324.1 207.32,-330.29 213.06,-334.3"/>
</g>
<!-- 3 -->
<g id="node8" class="node">
<title>3</title>
<path fill="white" stroke="#568ad8" stroke-width="2" d="M296.4,-252C296.4,-252 183.4,-252 183.4,-252 177.4,-252 171.4,-246 171.4,-240 171.4,-240 171.4,-228 171.4,-228 171.4,-222 177.4,-216 183.4,-216 183.4,-216 296.4,-216 296.4,-216 302.4,-216 308.4,-222 308.4,-228 308.4,-228 308.4,-240 308.4,-240 308.4,-246 302.4,-252 296.4,-252"/>
<text text-anchor="middle" x="239.9" y="-231.5" font-family="sans" font-size="10.00">write_results_pyclone_vi</text>
</g>
<!-- 4&#45;&gt;3 -->
<g id="edge8" class="edge">
<title>4&#45;&gt;3</title>
<path fill="none" stroke="grey" stroke-width="2" d="M230.86,-287.7C232.18,-279.98 233.77,-270.71 235.25,-262.11"/>
<polygon fill="grey" stroke="grey" stroke-width="2" points="238.72,-262.55 236.96,-252.1 231.82,-261.37 238.72,-262.55"/>
</g>
<!-- 3&#45;&gt;1 -->
<g id="edge7" class="edge">
<title>3&#45;&gt;1</title>
<path fill="none" stroke="grey" stroke-width="2" d="M227.78,-215.7C222.03,-207.47 215.03,-197.48 208.69,-188.42"/>
<polygon fill="grey" stroke="grey" stroke-width="2" points="211.47,-186.29 202.87,-180.1 205.74,-190.3 211.47,-186.29"/>
</g>
<!-- 8 -->
<g id="node9" class="node">
<title>8</title>
<path fill="white" stroke="#d8bc56" stroke-width="2" d="M764.4,-108C764.4,-108 665.4,-108 665.4,-108 659.4,-108 653.4,-102 653.4,-96 653.4,-96 653.4,-84 653.4,-84 653.4,-78 659.4,-72 665.4,-72 665.4,-72 764.4,-72 764.4,-72 770.4,-72 776.4,-78 776.4,-84 776.4,-84 776.4,-96 776.4,-96 776.4,-102 770.4,-108 764.4,-108"/>
<text text-anchor="middle" x="714.9" y="-87.5" font-family="sans" font-size="10.00">get_phyclone_version</text>
</g>
<!-- 8&#45;&gt;0 -->
<g id="edge12" class="edge">
<title>8&#45;&gt;0</title>
<path fill="none" stroke="grey" stroke-width="2" d="M653.34,-74.18C650.15,-73.44 646.99,-72.71 643.9,-72 570.96,-55.32 485.42,-36.93 437.76,-26.8"/>
<polygon fill="grey" stroke="grey" stroke-width="2" points="438.41,-23.36 427.9,-24.7 436.96,-30.21 438.41,-23.36"/>
</g>
<!-- 9 -->
<g id="node10" class="node">
<title>9</title>
<path fill="white" stroke="#bed856" stroke-width="2" d="M899.4,-108C899.4,-108 806.4,-108 806.4,-108 800.4,-108 794.4,-102 794.4,-96 794.4,-96 794.4,-84 794.4,-84 794.4,-78 800.4,-72 806.4,-72 806.4,-72 899.4,-72 899.4,-72 905.4,-72 911.4,-78 911.4,-84 911.4,-84 911.4,-96 911.4,-96 911.4,-102 905.4,-108 899.4,-108"/>
<text text-anchor="middle" x="852.9" y="-87.5" font-family="sans" font-size="10.00">get_pyclone_version</text>
</g>
<!-- 9&#45;&gt;0 -->
<g id="edge13" class="edge">
<title>9&#45;&gt;0</title>
<path fill="none" stroke="grey" stroke-width="2" d="M794.15,-73.7C791.37,-73.1 788.61,-72.53 785.9,-72 659.29,-47.3 507.06,-29.93 438.09,-22.72"/>
<polygon fill="grey" stroke="grey" stroke-width="2" points="438.45,-19.24 428.14,-21.69 437.73,-26.2 438.45,-19.24"/>
</g>
</g>
</svg>
